<?xml version="1.0" encoding="UTF-8" standalone="no"?>
<svg
   width="210mm"
   height="297mm"
   viewBox="0 0 210 297"
   version="1.1"
   id="svg8"
   inkscape:version="1.1.2 (b8e25be8, 2022-02-05)"
   sodipodi:docname="EDISS_Horizontal.svg"
   inkscape:export-filename="/Users/slafond/Downloads/EDISS_Horizontal.png"
   inkscape:export-xdpi="97.199997"
   inkscape:export-ydpi="97.199997"
   xmlns:inkscape="http://www.inkscape.org/namespaces/inkscape"
   xmlns:sodipodi="http://sodipodi.sourceforge.net/DTD/sodipodi-0.dtd"
   xmlns="http://www.w3.org/2000/svg"
   xmlns:svg="http://www.w3.org/2000/svg"
   xmlns:rdf="http://www.w3.org/1999/02/22-rdf-syntax-ns#"
   xmlns:cc="http://creativecommons.org/ns#"
   xmlns:dc="http://purl.org/dc/elements/1.1/">
  <defs
     id="defs2">
    <clipPath
       clipPathUnits="userSpaceOnUse"
       id="clipPath64">
      <path
         d="M 0,612 H 792 V 0 H 0 Z"
         id="path62" />
    </clipPath>
  </defs>
  <sodipodi:namedview
     id="base"
     pagecolor="#ffffff"
     bordercolor="#666666"
     borderopacity="1.0"
     inkscape:pageopacity="0.0"
     inkscape:pageshadow="2"
     inkscape:zoom="0.82"
     inkscape:cx="352.43902"
     inkscape:cy="294.5122"
     inkscape:document-units="mm"
     inkscape:current-layer="layer1"
     inkscape:document-rotation="0"
     showgrid="false"
     inkscape:window-width="1252"
     inkscape:window-height="855"
     inkscape:window-x="4047"
     inkscape:window-y="338"
     inkscape:window-maximized="0"
     inkscape:pagecheckerboard="true" />
  <metadata
     id="metadata5">
    <rdf:RDF>
      <cc:Work
         rdf:about="">
        <dc:format>image/svg+xml</dc:format>
        <dc:type
           rdf:resource="http://purl.org/dc/dcmitype/StillImage" />
        <dc:title />
      </cc:Work>
    </rdf:RDF>
  </metadata>
  <g
     inkscape:label="Layer 1"
     inkscape:groupmode="layer"
     id="layer1">
    <g
       id="g249"
       transform="matrix(1.1052924,0,0,1.1052924,-12.131087,-2.0634723)">
      <g
         id="g483"
         transform="translate(-12.838182,-0.9679877)">
        <g
           id="g54"
           transform="matrix(0.35277777,0,0,-0.35277777,86.988003,24.927351)">
          <path
             d="M 0,0 H 62.807 V -18.407 H 21.419 V -30.233 H 58.903 V -47.301 H 21.419 V -59.684 H 63.365 V -78.091 H 0 Z"
             style="fill:#00456b;fill-opacity:1;fill-rule:nonzero;stroke:none"
             id="path56" />
        </g>
        <g
           id="g66"
           transform="matrix(0.35277777,0,0,-0.35277777,123.98091,45.707126)">
          <path
             d="M 0,0 C 12.94,0 21.53,7.14 21.53,19.746 V 19.97 C 21.53,32.463 12.94,39.714 0,39.714 H -8.813 V 0 Z m -30.455,58.903 h 30.12 c 27.89,0 44.065,-16.065 44.065,-38.599 v -0.223 c 0,-22.535 -16.398,-39.268 -44.511,-39.268 h -29.674 z"
             style="fill:#00456b;fill-opacity:1;fill-rule:nonzero;stroke:none"
             id="path68" />
        </g>
        <path
           d="m 143.50004,24.927281 h 7.67433 v 27.548768 h -7.67433 z"
           style="fill:#00456b;fill-opacity:1;fill-rule:nonzero;stroke:none;stroke-width:0.352778"
           id="path70" />
        <g
           id="g72"
           transform="matrix(0.35277777,0,0,-0.35277777,154.12553,48.38291)">
          <path
             d="m 0,0 12.049,14.39 c 7.697,-6.136 16.287,-9.371 25.324,-9.371 5.8,0 8.924,2.008 8.924,5.356 v 0.222 c 0,3.235 -2.566,5.021 -13.164,7.474 -16.622,3.794 -29.451,8.48 -29.451,24.543 v 0.224 c 0,14.502 11.491,24.989 30.232,24.989 13.275,0 23.65,-3.57 32.129,-10.375 L 55.222,42.168 c -7.14,5.02 -14.95,7.697 -21.866,7.697 -5.243,0 -7.808,-2.23 -7.808,-5.019 v -0.224 c 0,-3.57 2.677,-5.132 13.498,-7.585 17.96,-3.905 29.116,-9.706 29.116,-24.32 v -0.223 c 0,-15.953 -12.605,-25.435 -31.57,-25.435 C 22.758,-12.941 9.595,-8.591 0,0"
             style="fill:#00456b;fill-opacity:1;fill-rule:nonzero;stroke:none"
             id="path74" />
        </g>
        <g
           id="g76"
           transform="matrix(0.35277777,0,0,-0.35277777,179.3908,48.38291)">
          <path
             d="m 0,0 12.049,14.39 c 7.697,-6.136 16.287,-9.371 25.324,-9.371 5.8,0 8.924,2.008 8.924,5.356 v 0.222 c 0,3.235 -2.566,5.021 -13.164,7.474 -16.622,3.794 -29.451,8.48 -29.451,24.543 v 0.224 c 0,14.502 11.491,24.989 30.232,24.989 13.275,0 23.65,-3.57 32.129,-10.375 L 55.222,42.168 c -7.14,5.02 -14.95,7.697 -21.866,7.697 -5.243,0 -7.808,-2.23 -7.808,-5.019 v -0.224 c 0,-3.57 2.677,-5.132 13.498,-7.585 17.961,-3.905 29.116,-9.706 29.116,-24.32 v -0.223 c 0,-15.953 -12.605,-25.435 -31.57,-25.435 C 22.758,-12.941 9.595,-8.591 0,0"
             style="fill:#00456b;fill-opacity:1;fill-rule:nonzero;stroke:none"
             id="path78" />
        </g>
      </g>
      <g
         id="g472"
         transform="translate(-13.229167,-8.9829269)">
        <g
           id="g80"
           transform="matrix(0.35277777,0,0,-0.35277777,87.49117,64.398845)">
          <path
             d="M 0,0 H 4.695 L 8.519,-6.206 12.344,0 h 4.695 v -16.03 h -4.42 v 9.206 L 8.519,-13.1 H 8.428 l -4.077,6.23 v -9.16 H 0 Z"
             style="fill:#00456b;fill-opacity:1;fill-rule:nonzero;stroke:none"
             id="path82" />
        </g>
        <g
           id="g84"
           transform="matrix(0.35277777,0,0,-0.35277777,98.804189,67.824281)">
          <path
             d="M 0,0 -1.786,4.558 -3.595,0 Z M -3.893,9.824 H 0.389 L 7.214,-6.32 H 2.45 L 1.282,-3.458 H -4.901 L -6.046,-6.32 h -4.672 z"
             style="fill:#00456b;fill-opacity:1;fill-rule:nonzero;stroke:none"
             id="path86" />
        </g>
        <g
           id="g88"
           transform="matrix(0.35277777,0,0,-0.35277777,102.36107,69.213697)">
          <path
             d="M 0,0 2.474,2.954 C 4.054,1.694 5.817,1.03 7.672,1.03 c 1.191,0 1.832,0.412 1.832,1.1 V 2.175 C 9.504,2.839 8.977,3.206 6.801,3.71 3.389,4.488 0.755,5.45 0.755,8.748 v 0.046 c 0,2.977 2.359,5.13 6.207,5.13 2.725,0 4.855,-0.734 6.596,-2.13 L 11.336,8.656 c -1.465,1.031 -3.069,1.58 -4.489,1.58 -1.076,0 -1.602,-0.458 -1.602,-1.03 V 9.16 C 5.245,8.428 5.794,8.106 8.016,7.604 11.702,6.801 13.992,5.61 13.992,2.61 V 2.564 c 0,-3.274 -2.588,-5.22 -6.48,-5.22 C 4.672,-2.656 1.97,-1.765 0,0"
             style="fill:#00456b;fill-opacity:1;fill-rule:nonzero;stroke:none"
             id="path90" />
        </g>
        <g
           id="g92"
           transform="matrix(0.35277777,0,0,-0.35277777,110.24774,65.772032)">
          <path
             d="M 0,0 H -4.809 V 3.893 H 9.253 V 0 H 4.443 V -12.138 H 0 Z"
             style="fill:#00456b;fill-opacity:1;fill-rule:nonzero;stroke:none"
             id="path94" />
        </g>
        <g
           id="g96"
           transform="matrix(0.35277777,0,0,-0.35277777,115.17011,64.398845)">
          <path
             d="M 0,0 H 12.893 V -3.778 H 4.396 v -2.428 h 7.696 V -9.71 H 4.396 v -2.541 h 8.611 V -16.03 H 0 Z"
             style="fill:#00456b;fill-opacity:1;fill-rule:nonzero;stroke:none"
             id="path98" />
        </g>
        <g
           id="g100"
           transform="matrix(0.35277777,0,0,-0.35277777,124.13148,67.113223)">
          <path
             d="m 0,0 c 1.511,0 2.382,0.732 2.382,1.901 v 0.045 c 0,1.26 -0.916,1.902 -2.404,1.902 h -2.91 V 0 Z m -7.374,7.694 h 7.58 c 2.451,0 4.146,-0.64 5.222,-1.74 0.938,-0.916 1.42,-2.152 1.42,-3.732 V 2.176 c 0,-2.451 -1.306,-4.077 -3.299,-4.924 l 3.825,-5.588 h -5.13 l -3.229,4.855 H -1.03 -2.932 v -4.855 h -4.442 z"
             style="fill:#00456b;fill-opacity:1;fill-rule:nonzero;stroke:none"
             id="path102" />
        </g>
        <g
           id="g104"
           transform="matrix(0.35277777,0,0,-0.35277777,127.99517,66.733563)">
          <path
             d="M 0,0 C 1.533,0.16 2.358,0.916 2.29,2.153 H 0.55 v 4.465 h 4.512 v -3.64 c 0,-3.39 -1.833,-4.558 -4.696,-4.65 z"
             style="fill:#00456b;fill-opacity:1;fill-rule:nonzero;stroke:none"
             id="path106" />
        </g>
        <g
           id="g108"
           transform="matrix(0.35277777,0,0,-0.35277777,131.14671,69.213697)">
          <path
             d="M 0,0 2.474,2.954 C 4.054,1.694 5.816,1.03 7.672,1.03 c 1.19,0 1.832,0.412 1.832,1.1 V 2.175 C 9.504,2.839 8.977,3.206 6.802,3.71 3.39,4.488 0.756,5.45 0.756,8.748 v 0.046 c 0,2.977 2.358,5.13 6.206,5.13 2.726,0 4.855,-0.734 6.596,-2.13 L 11.336,8.656 c -1.466,1.031 -3.068,1.58 -4.488,1.58 -1.077,0 -1.604,-0.458 -1.604,-1.03 V 9.16 C 5.244,8.428 5.794,8.106 8.016,7.604 11.703,6.801 13.993,5.61 13.993,2.61 V 2.564 c 0,-3.274 -2.588,-5.22 -6.482,-5.22 C 4.672,-2.656 1.969,-1.765 0,0"
             style="fill:#00456b;fill-opacity:1;fill-rule:nonzero;stroke:none"
             id="path110" />
        </g>
        <g
           id="g112"
           transform="matrix(0.35277777,0,0,-0.35277777,143.33272,67.210378)">
          <path
             d="M 0,0 C 1.58,0 2.542,0.825 2.542,2.085 V 2.13 c 0,1.375 -0.962,2.107 -2.565,2.107 H -2.107 V 0 Z m -6.55,7.97 h 6.87 c 4.053,0 6.665,-2.083 6.665,-5.634 V 2.291 C 6.985,-1.488 4.076,-3.48 0.091,-3.48 H -2.107 V -8.061 H -6.55 Z"
             style="fill:#00456b;fill-opacity:1;fill-rule:nonzero;stroke:none"
             id="path114" />
        </g>
        <g
           id="g116"
           transform="matrix(0.35277777,0,0,-0.35277777,150.03207,67.113223)">
          <path
             d="m 0,0 c 1.511,0 2.382,0.732 2.382,1.901 v 0.045 c 0,1.26 -0.916,1.902 -2.404,1.902 h -2.91 V 0 Z m -7.374,7.694 h 7.58 c 2.451,0 4.146,-0.64 5.222,-1.74 0.938,-0.916 1.42,-2.152 1.42,-3.732 V 2.176 c 0,-2.451 -1.306,-4.077 -3.299,-4.924 l 3.825,-5.588 h -5.13 l -3.229,4.855 H -1.03 -2.932 v -4.855 h -4.442 z"
             style="fill:#00456b;fill-opacity:1;fill-rule:nonzero;stroke:none"
             id="path118" />
        </g>
        <g
           id="g120"
           transform="matrix(0.35277777,0,0,-0.35277777,158.50872,67.24241)">
          <path
             d="m 0,0 v 0.045 c 0,2.313 -1.672,4.328 -4.122,4.328 -2.428,0 -4.054,-1.969 -4.054,-4.282 V 0.045 c 0,-2.313 1.672,-4.327 4.099,-4.327 C -1.626,-4.282 0,-2.313 0,0 m -12.733,0 v 0.045 c 0,4.603 3.711,8.337 8.656,8.337 4.947,0 8.611,-3.688 8.611,-8.291 V 0.045 c 0,-4.603 -3.71,-8.336 -8.656,-8.336 -4.947,0 -8.611,3.687 -8.611,8.291"
             style="fill:#00456b;fill-opacity:1;fill-rule:nonzero;stroke:none"
             id="path122" />
        </g>
        <g
           id="g124"
           transform="matrix(0.35277777,0,0,-0.35277777,161.70196,67.24241)">
          <path
             d="m 0,0 v 0.045 c 0,4.673 3.664,8.337 8.634,8.337 2.816,0 4.809,-0.871 6.504,-2.337 L 12.527,2.908 C 11.383,3.87 10.237,4.42 8.656,4.42 6.344,4.42 4.558,2.474 4.558,0.022 v -0.045 c 0,-2.587 1.808,-4.443 4.351,-4.443 1.076,0 1.901,0.229 2.565,0.664 v 1.947 H 8.313 v 3.251 h 7.375 V -5.817 C 13.993,-7.214 11.634,-8.291 8.726,-8.291 3.733,-8.291 0,-4.855 0,0"
             style="fill:#00456b;fill-opacity:1;fill-rule:nonzero;stroke:none"
             id="path126" />
        </g>
        <g
           id="g128"
           transform="matrix(0.35277777,0,0,-0.35277777,171.68208,67.113223)">
          <path
             d="m 0,0 c 1.511,0 2.382,0.732 2.382,1.901 v 0.045 c 0,1.26 -0.916,1.902 -2.405,1.902 H -2.932 V 0 Z m -7.374,7.694 h 7.58 c 2.45,0 4.146,-0.64 5.222,-1.74 0.938,-0.916 1.42,-2.152 1.42,-3.732 V 2.176 c 0,-2.451 -1.306,-4.077 -3.299,-4.924 l 3.825,-5.588 h -5.13 l -3.229,4.855 H -1.03 -2.932 v -4.855 h -4.442 z"
             style="fill:#00456b;fill-opacity:1;fill-rule:nonzero;stroke:none"
             id="path130" />
        </g>
        <g
           id="g132"
           transform="matrix(0.35277777,0,0,-0.35277777,179.09214,67.824281)">
          <path
             d="M 0,0 -1.786,4.558 -3.595,0 Z M -3.893,9.824 H 0.391 L 7.214,-6.32 H 2.451 L 1.283,-3.458 H -4.9 L -6.045,-6.32 h -4.673 z"
             style="fill:#00456b;fill-opacity:1;fill-rule:nonzero;stroke:none"
             id="path134" />
        </g>
        <g
           id="g136"
           transform="matrix(0.35277777,0,0,-0.35277777,183.15836,64.398845)">
          <path
             d="M 0,0 H 4.694 L 8.52,-6.206 12.344,0 h 4.695 v -16.03 h -4.42 v 9.206 L 8.52,-13.1 H 8.428 l -4.077,6.23 v -9.16 H 0 Z"
             style="fill:#00456b;fill-opacity:1;fill-rule:nonzero;stroke:none"
             id="path138" />
        </g>
        <g
           id="g140"
           transform="matrix(0.35277777,0,0,-0.35277777,191.14271,64.398845)">
          <path
             d="M 0,0 H 4.694 L 8.52,-6.206 12.344,0 h 4.695 v -16.03 h -4.42 v 9.206 L 8.52,-13.1 H 8.428 l -4.076,6.23 v -9.16 H 0 Z"
             style="fill:#00456b;fill-opacity:1;fill-rule:nonzero;stroke:none"
             id="path142" />
        </g>
        <g
           id="g144"
           transform="matrix(0.35277777,0,0,-0.35277777,199.12706,64.398845)">
          <path
             d="M 0,0 H 12.893 V -3.778 H 4.396 v -2.428 h 7.695 V -9.71 H 4.396 v -2.541 h 8.611 V -16.03 H 0 Z"
             style="fill:#00456b;fill-opacity:1;fill-rule:nonzero;stroke:none"
             id="path146" />
        </g>
      </g>
    </g>
    <g
       id="g501"
       transform="matrix(0.90954767,0,0,0.88741363,3.5740003,2.4667943)">
      <g
         id="g148"
         transform="matrix(0.35277777,0,0,-0.35277777,35.808521,24.691696)">
        <path
           d="m 0,0 c 0,0.066 0.004,0.131 0.005,0.198 h -25.428 c 0,-0.066 -0.002,-0.132 -0.002,-0.198 0,-29.647 24.034,-53.682 53.681,-53.682 v 25.426 C 12.651,-28.256 0,-15.605 0,0"
           style="fill:#e30613;fill-opacity:1;fill-rule:nonzero;stroke:none"
           id="path150" />
      </g>
      <g
         id="g152"
         transform="matrix(0.35277777,0,0,-0.35277777,39.140966,26.437311)">
        <path
           d="M 0,0 C 0,7.21 5.845,13.055 13.055,13.055 20.265,13.055 26.11,7.21 26.11,0 26.11,-7.21 20.265,-13.055 13.055,-13.055 5.845,-13.055 0,-7.21 0,0"
           style="fill:#e30613;fill-opacity:1;fill-rule:nonzero;stroke:none"
           id="path154" />
      </g>
      <g
         id="g156"
         transform="matrix(0.35277777,0,0,-0.35277777,59.080847,53.585712)">
        <path
           d="m 0,0 c 0,-0.066 -0.004,-0.132 -0.005,-0.198 h 25.428 c 0,0.066 0.002,0.132 0.002,0.198 0,29.647 -24.034,53.681 -53.681,53.681 V 28.256 C -12.651,28.256 0,15.605 0,0"
           style="fill:#01768f;fill-opacity:1;fill-rule:nonzero;stroke:none"
           id="path158" />
      </g>
      <g
         id="g160"
         transform="matrix(0.35277777,0,0,-0.35277777,55.748403,51.840062)">
        <path
           d="m 0,0 c 0,-7.21 -5.845,-13.055 -13.055,-13.055 -7.21,0 -13.055,5.845 -13.055,13.055 0,7.21 5.845,13.055 13.055,13.055 C -5.845,13.055 0,7.21 0,0"
           style="fill:#01768f;fill-opacity:1;fill-rule:nonzero;stroke:none"
           id="path162" />
      </g>
      <g
         id="g164"
         transform="matrix(0.35277777,0,0,-0.35277777,19.944211,41.664116)">
        <path
           d="m 0,0 c 0,0.066 0.004,0.131 0.005,0.197 h -25.428 c 0,-0.066 -0.002,-0.131 -0.002,-0.197 0,-29.648 24.034,-53.682 53.681,-53.682 v 25.426 C 12.651,-28.256 0,-15.606 0,0"
           style="fill:#00456b;fill-opacity:1;fill-rule:nonzero;stroke:none"
           id="path166" />
      </g>
      <g
         id="g168"
         transform="matrix(0.35277777,0,0,-0.35277777,23.276655,43.409943)">
        <path
           d="M 0,0 C 0,7.21 5.845,13.055 13.055,13.055 20.265,13.055 26.11,7.21 26.11,0 26.11,-7.21 20.265,-13.055 13.055,-13.055 5.845,-13.055 0,-7.21 0,0"
           style="fill:#00456b;fill-opacity:1;fill-rule:nonzero;stroke:none"
           id="path170" />
      </g>
      <g
         id="g172"
         transform="matrix(0.35277777,0,0,-0.35277777,43.216537,70.558309)">
        <path
           d="m 0,0 c 0,-0.066 -0.004,-0.132 -0.005,-0.198 h 25.428 c 0,0.066 0.002,0.132 0.002,0.198 0,29.647 -24.034,53.682 -53.681,53.682 V 28.256 C -12.651,28.256 0,15.605 0,0"
           style="fill:#f7a600;fill-opacity:1;fill-rule:nonzero;stroke:none"
           id="path174" />
      </g>
      <g
         id="g176"
         transform="matrix(0.35277777,0,0,-0.35277777,39.884092,68.812694)">
        <path
           d="m 0,0 c 0,-7.21 -5.845,-13.055 -13.055,-13.055 -7.21,0 -13.055,5.845 -13.055,13.055 0,7.21 5.845,13.056 13.055,13.056 C -5.845,13.056 0,7.21 0,0"
           style="fill:#f7a600;fill-opacity:1;fill-rule:nonzero;stroke:none"
           id="path178" />
      </g>
    </g>
  </g>
</svg>
